Coordinates
version=1
nRows=43
nColumns=12
inDegrees=yes

Units are S.I. units (second, meters, Newtons, ...)
Angles are in degrees

endheader
time	SC_y	SC_z	SC_x	AC_y	AC_z	AC_x	GH_y	GH_z	GH_yy	EL_x	PS_y
       0.0               -32.8           18.0          11.61           56.8         -14.85          10.94         -52.19          57.28          106.0          87.52          142.7
   0.02384               -32.8           18.0          11.61           56.8         -14.84          10.94         -52.19          57.27          106.0          87.52          142.7
   0.04769              -32.81           18.0          11.61           56.8         -14.84          10.94         -52.19          57.26          106.0          87.52          142.7
   0.07153              -32.81           18.0          11.62          56.79         -14.84          10.94          -52.2          57.25          106.0          87.52          142.7
   0.09538              -32.81           18.0          11.62          56.79         -14.84          10.94          -52.2          57.24          106.0          87.51          142.7
    0.1192              -32.81           18.0          11.63          56.78         -14.84          10.94          -52.2          57.22          106.0          87.51          142.7
    0.1431              -32.82           18.0          11.63          56.78         -14.84          10.94          -52.2          57.21          106.0          87.51          142.7
    0.1669              -32.82           18.0          11.64          56.77         -14.84          10.94          -52.2           57.2          106.0          87.51          142.6
    0.1908              -32.83           18.0          11.64          56.77         -14.84          10.95          -52.2          57.18          106.0          87.51          142.6
    0.2146              -32.83           18.0          11.65          56.76         -14.84          10.95          -52.2          57.16          106.0          87.51          142.6
    0.2384              -32.83           18.0          11.66          56.76         -14.84          10.95         -52.21          57.15          106.0           87.5          142.6
    0.2623              -32.84           18.0          11.67          56.75         -14.84          10.95         -52.21          57.13          106.1           87.5          142.6
    0.2861              -32.84          17.99          11.67          56.74         -14.84          10.95         -52.21          57.11          106.1           87.5          142.5
      0.31              -32.85          17.99          11.68          56.73         -14.84          10.95         -52.21          57.08          106.1           87.5          142.5
    0.3338              -32.86          17.99          11.69          56.72         -14.83          10.95         -52.22          57.06          106.1           87.5          142.5
    0.3577              -32.86          17.99           11.7          56.71         -14.83          10.95         -52.22          57.03          106.1          87.49          142.5
    0.3815              -32.87          17.99          11.71           56.7         -14.83          10.96         -52.22          57.01          106.1          87.49          142.4
    0.4053              -32.88          17.99          11.72          56.69         -14.83          10.96         -52.23          56.98          106.1          87.49          142.4
    0.4292              -32.89          17.98          11.74          56.68         -14.83          10.96         -52.23          56.94          106.1          87.48          142.4
     0.453               -32.9          17.98          11.75          56.67         -14.83          10.96         -52.23           56.9          106.1          87.48          142.3
    0.4769              -32.91          17.98          11.77          56.65         -14.82          10.96         -52.24          56.86          106.2          87.47          142.3
    0.5007              -32.92          17.98          11.78          56.64         -14.82          10.97         -52.24          56.82          106.2          87.47          142.2
    0.5246              -32.93          17.97           11.8          56.62         -14.82          10.97         -52.25          56.77          106.2          87.46          142.2
    0.5484              -32.94          17.97          11.82           56.6         -14.82          10.97         -52.25          56.71          106.2          87.46          142.1
    0.5723              -32.96          17.97          11.84          56.58         -14.81          10.98         -52.26          56.65          106.2          87.45          142.0
    0.5961              -32.97          17.96          11.87          56.55         -14.81          10.98         -52.27          56.59          106.3          87.44          142.0
    0.6199              -32.99          17.96           11.9          56.52         -14.81          10.98         -52.28          56.51          106.3          87.44          141.9
    0.6438              -33.02          17.95          11.93          56.49          -14.8          10.99         -52.28          56.42          106.3          87.43          141.8
    0.6676              -33.04          17.95          11.97          56.46          -14.8          10.99         -52.29          56.33          106.4          87.42          141.7
    0.6915              -33.07          17.94          12.01          56.42         -14.79           11.0         -52.31          56.22          106.4           87.4          141.5
    0.7153               -33.1          17.93          12.06          56.37         -14.78          11.01         -52.32          56.09          106.4          87.39          141.4
    0.7392              -33.13          17.92          12.11          56.32         -14.78          11.02         -52.34          55.95          106.5          87.38          141.2
     0.763              -33.18          17.91          12.17          56.26         -14.77          11.02         -52.35          55.78          106.6          87.36          141.1
    0.7869              -33.22           17.9          12.25          56.19         -14.76          11.04         -52.37          55.59          106.6          87.34          140.8
    0.8107              -33.28          17.89          12.33          56.11         -14.75          11.05          -52.4          55.36          106.7          87.31          140.6
    0.8345              -33.35          17.87          12.43          56.01         -14.73          11.06         -52.43          55.09          106.8          87.28          140.3
    0.8584              -33.43          17.85          12.55          55.89         -14.72          11.08         -52.46          54.78          106.9          87.25          139.9
    0.8822              -33.52          17.83           12.7          55.76          -14.7           11.1          -52.5           54.4          107.1          87.21          139.5
    0.9061              -33.64           17.8          12.87          55.59         -14.67          11.13         -52.55          53.94          107.3          87.16          139.0
    0.9299              -33.78          17.76          13.08          55.39         -14.64          11.16         -52.61          53.38          107.5           87.1          138.4
    0.9538              -33.95          17.72          13.35          55.13         -14.61           11.2         -52.69          52.68          107.7          87.02          137.6
    0.9776              -34.17          17.66          13.67          54.82         -14.56          11.25         -52.78          51.82          108.1          86.93          136.7
     1.001              -34.44           17.6          14.08          54.42         -14.51          11.31          -52.9          50.73          108.5          86.81          135.5
